General

Format                         : MPEG-4
Format profile                 : Base Media
Codec ID                       : isom
File size                      : 66.0 MiB
Duration                       : 3mn 21s
Overall bit rate mode          : Variable
Overall bit rate               : 2 752 Kbps
Encoded date                   : UTC 2012-07-07 19:43:06
Tagged date                    : UTC 2012-07-07 19:43:06

Video
ID                             : 1
Format                         : AVC
Format/Info                    : Advanced Video Codec
Format profile                 : High@L3.0
Format settings, CABAC         : Yes
Format settings, ReFrames      : 2 frames
Codec ID                       : avc1
Codec ID/Info                  : Advanced Video Coding
Duration                       : 3mn 21s
Bit rate                       : 2 588 Kbps
Maximum bit rate               : 5 183 Kbps
Width                          : 720 pixels
Height                         : 480 pixels
Display aspect ratio           : 16:9
Original display aspect ratio  : 16:9
Frame rate mode                : Constant
Frame rate                     : 25.000 fps
Standard                       : NTSC
Color space                    : YUV
Chroma subsampling             : 4:2:0
Bit depth                      : 8 bits
Scan type                      : Progressive
Bits/(Pixel*Frame)             : 0.300
Stream size                    : 61.3 MiB (93%)


Audio
ID                             : 2
Format                         : AAC
Format/Info                    : Advanced Audio Codec
Format profile                 : LC
Codec ID                       : 40
Duration                       : 3mn 21s
Bit rate mode                  : Variable
Bit rate                       : 192 Kbps
Maximum bit rate               : 226 Kbps
Channel(s)                     : 2 channels
Channel positions              : Front: L R
Sampling rate                  : 44.1 KHz
Compression mode               : Lossy
Delay relative to video        : -7ms
Stream size                    : 4.61 MiB (7%)